<svg xmlns="http://www.w3.org/2000/svg"
 x="0" y="0" viewBox="0 0 13 13" xml:space="preserve">
  <path d="M4.7 1.3C4.6 1 4.2.7 3.8.8c-.4.1-.6.5-.5.9l.2.7c.1.4.5.6.9.5.3-.1.6-.5.5-.9l-.2-.7zM1.7 3.3c-.4-.1-.8.1-.9.5s.2.8.5.9l.7.2c.4.1.8-.2.9-.5s-.2-.8-.5-.9l-.7-.2zM7.9 2.9c.3-.3.3-.7 0-1-.3-.3-.7-.3-1 0l-.5.5c-.3.3-.3.7 0 1 .3.3.7.3 1 0l.5-.5zM2.9 7.9l.5-.5c.3-.3.3-.7 0-1-.3-.3-.7-.3-1 0l-.5.5c-.3.3-.3.7 0 1 .3.2.7.2 1 0zM5.2 4.3c-.3-.1-.6 0-.8.2-.2.1-.3.4-.2.7l2.8 7c.1.3.3.4.6.4s.5-.1.7-.4l1-1.9 2.1 2.1c.3.3.7.3 1 0 .3-.3.3-.7 0-1l-2.1-2.1 1.9-1c.2-.1.4-.4.4-.7 0-.3-.2-.5-.4-.6l-7-2.7z"/>
</svg>