<svg xmlns="http://www.w3.org/2000/svg" viewBox="0 0 12.6 12.6" xml:space="preserve">
  <path d="M12.6 11.7c0 .5-.3.8-.6.9H.9c-.5 0-.9-.4-.9-.9V1C0 .5.3.1.7 0h10.9c.5 0 .8.3.9.7.1.1.1 9.2.1 11zm-5.8-1.1V7.5c0-.4.1-.7.4-1 .4-.3 1.1-.2 1.3.2.2.1.3.3.3.6v3.1c0 .1 0 .2.2.2h1.7c.1 0 .2 0 .2-.1V7.3c0-.3 0-.6-.1-.9-.2-.6-.5-1.1-1.1-1.4-.6-.3-1-.3-1.4-.3-.4 0-.8.2-1.1.4-.1.2-.3.3-.4.5V5c0-.1 0-.1-.1-.1H5c-.1 0-.1 0-.1.1v5.5c0 .1 0 .1.1.1h1.8zm-3 0V5c0-.1 0-.1-.1-.1H2c-.1 0-.1 0-.1.2v5.5h1.9zm-.9-6.5h.3c.4-.1.7-.5.7-.9 0-.5-.2-.9-.7-1.1h-.6c-.6.1-.9.7-.8 1.3.1.4.5.7 1.1.7z" />
</svg>