<svg xmlns="http://www.w3.org/2000/svg" x="0" y="0" viewBox="0 0 14 11" xml:space="preserve">
  <path d="M9.1 2.2c0 1.2-.9 2.1-2.1 2.1-1.2 0-2.1-.9-2.1-2.1S5.8.1 7 .1c1.2 0 2.1.9 2.1 2.1zM12.6 3.6c0 .8-.6 1.4-1.4 1.4s-1.4-.6-1.4-1.4.6-1.4 1.4-1.4 1.4.6 1.4 1.4zM9.8 8.5C9.8 7 8.5 5.7 7 5.7 5.5 5.7 4.2 7 4.2 8.5v2.1h5.6V8.5zM4.2 3.6c0 .8-.6 1.4-1.4 1.4s-1.4-.6-1.4-1.4.6-1.4 1.4-1.4 1.4.6 1.4 1.4zM11.2 10.6V8.5c0-.7-.2-1.4-.5-2 .2 0 .3-.1.5-.1 1.2 0 2.1.9 2.1 2.1v2.1h-2.1zM3.3 6.5c-.3.6-.5 1.3-.5 2v2.1H.7V8.5c0-1.2.9-2.1 2.1-2.1.2 0 .4 0 .5.1z" />
</svg>